<?xml version="1.0" encoding="utf-8" ?>
<svg baseProfile="full" height="200mm" version="1.1" viewBox="0,0,200,200" width="200mm" xmlns="http://www.w3.org/2000/svg" xmlns:ev="http://www.w3.org/2001/xml-events" xmlns:xlink="http://www.w3.org/1999/xlink"><defs /><rect fill="#1a1a1a" height="200" width="200" x="0" y="0" /><rect fill="#1a1a1a" height="200" width="180" x="10" y="0" /><text alignment-baseline="middle" fill="#e1ed5e" style="dominant-baseline: central; font-size:9.0px; font-family:Arial;" text-anchor="middle" x="100.0" y="100.0">2025</text><line stroke="#e1ed5e" stroke-width="0.3" x1="100.0" x2="100.0" y1="15.0" y2="10.0" /><path d="M 100.0 14.0 a86.0,86.0 0 0,1 42.46469731375804,11.215312516191453" fill="none" id="id1" stroke="none" /><text fill="#e1ed5e" style="font-size:6.75px; font-family:Arial;" text-anchor="middle"><textPath startOffset="22.20632615414155" xlink:href="#id1">January</textPath></text><line stroke="#e1ed5e" stroke-width="0.3" x1="143.23703022742887" x2="145.7803849466894" y1="26.81831364943548" y2="22.513508569990506" /><path d="M 143.74570117128098 25.957352633546492 a86.0,86.0 0 0,1 28.547481713284135,27.462654790039103" fill="none" id="id2" stroke="none" /><text fill="#e1ed5e" style="font-size:6.75px; font-family:Arial;" text-anchor="middle"><textPath startOffset="19.985693538727396" xlink:href="#id2">February</textPath></text><line stroke="#e1ed5e" stroke-width="0.3" x1="172.23445277983987" x2="176.4835382374775" y1="55.19839476539836" y2="52.563006222186495" /><path d="M 173.08426987136738 54.67131705675599 a86.0,86.0 0 0,1 12.851231095245387,41.99856678651699" fill="none" id="id3" stroke="none" /><text fill="#e1ed5e" style="font-size:6.75px; font-family:Arial;" text-anchor="middle"><textPath startOffset="22.20632615414155" xlink:href="#id3">March</textPath></text><line stroke="#e1ed5e" stroke-width="0.3" x1="184.98032266829074" x2="189.97916517819016" y1="98.17113171792111" y2="98.06355123074" /><path d="M 185.9800911702706 98.14961562048488 a86.0,86.0 0 0,1 -9.607161424134198,41.387399972396054" fill="none" id="id4" stroke="none" /><text fill="#e1ed5e" style="font-size:6.75px; font-family:Arial;" text-anchor="middle"><textPath startOffset="21.466115282336823" xlink:href="#id4">April</textPath></text><line stroke="#e1ed5e" stroke-width="0.3" x1="174.80103733775053" x2="179.2010983576182" y1="140.37084112569926" y2="142.7455964860345" /><path d="M 175.68104954172406 140.8457921977663 a86.0,86.0 0 0,1 -30.038265399797805,32.042727171017184" fill="none" id="id5" stroke="none" /><text fill="#e1ed5e" style="font-size:6.75px; font-family:Arial;" text-anchor="middle"><textPath startOffset="22.206326154141568" xlink:href="#id5">May</textPath></text><path d="M 114.29624159901734 115.38237550388516 l 17.00366783241787 18.295494080035898 a45.9769858747574,45.9769858747574 0 0,0 -0.5843465830537325,0.5337867488958264 l -16.686221699897274 -18.58547359551831" fill="#ffb210" stroke="none" /><path d="M 113.48314897796784 116.09983520530334 l 13.234220733914164 15.802597244515509 a41.61229434357885,41.61229434357885 0 0,0 -0.5531063986230306,0.45516891077485183 l -12.960244206746443 -16.02806127414754" fill="#ff6809" stroke="none" /><path d="M 111.7513745106137 117.40417183066458 l 19.68773015596275 29.15817535052229 a56.18246592360761,56.18246592360761 0 0,0 -0.8061523080934648,0.5342737916625718 l -19.18290314912932 -29.492747163276178" fill="#adff20" stroke="none" /><line stroke="#e1ed5e" stroke-width="0.3" x1="143.8653032363475" x2="146.44561519142675" y1="172.8068346515853" y2="177.08958963109032" /><path d="M 144.38136562736335 173.6633856474863 a86.0,86.0 0 0,1 -40.68145358897372,12.25698825130547" fill="none" id="id6" stroke="none" /><text fill="#e1ed5e" style="font-size:6.75px; font-family:Arial;" text-anchor="middle"><textPath startOffset="21.466115282336833" xlink:href="#id6">June</textPath></text><path d="M 109.89434966115114 118.52300852407294 l 9.840550856492952 18.42229288824077 a41.88581615401588,41.88581615401588 0 0,0 -0.6388765699635217,0.33423002623348613 l -9.521983384002935 -18.58895233341897" fill="#ff6c0a" stroke="none" /><path d="M 108.92500713936063 119.00905698771935 l 12.688066583049462 27.02386418017398 a50.85425043179592,50.85425043179592 0 0,0 -0.795583277052547,0.36521326159922884 l -12.221015310229495 -27.238264512107282" fill="#fdff18" stroke="none" /><path d="M 107.93186726928326 119.44442032107085 l 8.56560246629785 20.99797803007696 a43.67784440731179,43.67784440731179 0 0,0 -0.6985936847780321,0.2779848445037122 l -8.202887705477952 -21.14230971898674" fill="#ff8b0c" stroke="none" /><path d="M 106.57524785965236 119.94407469862006 l 8.015954401513394 24.314032988099072 a46.60132272195153,46.60132272195153 0 0,0 -0.7639924144617367,0.24460624502538342 l -7.596240641960717 -24.44841207978416" fill="#ffbd11" stroke="none" /><path d="M 106.2309692047433 120.05430185196036 l 4.511689208845696 14.520819198969418 a36.2055756131221,36.2055756131221 0 0,0 -0.5967455135474999,0.17979452805377055 l -4.26106872085795 -14.596329096128914" fill="#ff0500" stroke="none" /><path d="M 104.48393922423573 120.51570834832081 l 3.828056545855701 17.514798419026747 a38.92825090680657,38.92825090680657 0 0,0 -0.6558641696403676,0.13744271359601462 l -3.5260009147859557 -17.578097113349305" fill="#ff3705" stroke="none" /><path d="M 103.7750983002368 120.6578951692458 l 4.282136917550994 23.432485330932106 a44.82053872952922,44.82053872952922 0 0,0 -0.760137188938031,0.132159593789845 l -3.8781507571409124 -23.502723503242958" fill="#ff9f0e" stroke="none" /><path d="M 102.70371172650421 120.8252237178851 l 3.1119949458907272 23.970007720052415 a45.17117669131194,45.17117669131194 0 0,0 -0.7719379325244067,0.09347093333212918 l -2.6989295903149406 -24.020024182109893" fill="#ffa50f" stroke="none" /><path d="M 101.98527174616119 120.90594882070398 l 2.8074530218332017 29.56394725531454 a50.696948829548475,50.696948829548475 0 0,0 -0.86946639019658,0.07502121866993136 l -2.2981423138950796 -29.607892726263138" fill="#ffff18" stroke="none" /><line stroke="#e1ed5e" stroke-width="0.3" x1="102.19456741930631" x2="102.32365962044197" y1="184.97166512339345" y2="189.96999836594603" /><path d="M 102.22038585953345 185.97133177190398 a86.0,86.0 0 0,1 -42.740103519485714,-10.115201625700543" fill="none" id="id7" stroke="none" /><text fill="#e1ed5e" style="font-size:6.75px; font-family:Arial;" text-anchor="middle"><textPath startOffset="22.20632615414155" xlink:href="#id7">July</textPath></text><path d="M 100.18074693466247 120.99922214144158 l 0.12857602369240861 14.937993214779958 a35.938546551745944,35.938546551745944 0 0,0 -0.6186459167097178,0.0 l 0.12857602369239832 -14.937993214779958" fill="#ff0000" stroke="none" /><path d="M 99.45781275523022 120.99299961872073 l -0.6141062249371588 23.777637468092575 a44.78556642208771,44.78556642208771 0 0,0 -0.7704816041439887,-0.026536944313885865 l 1.0233081807557907 -23.763543725352594" fill="#ff9e0e" stroke="none" /><path d="M 98.73552117531835 120.96189622390904 l -0.9584896026142653 15.889360256194438 a36.918243360039796,36.918243360039796 0 0,0 -0.6340044458217309,-0.04372465856737394 l 1.2318568092149262 -15.87050725311078" fill="#ff1202" stroke="none" /><path d="M 98.01472825383883 120.90594882070398 l -2.774511309705196 29.21705381407876 a50.348494792449856,50.348494792449856 0 0,0 -0.8620798827303809,-0.08935810467697371 l 3.2770237890411704 -29.164966340946027" fill="#fff917" stroke="none" /><path d="M 96.93821686468263 120.77559828337769 l -4.329253428046683 29.375963650250764 a50.69325976758207,50.69325976758207 0 0,0 -0.8621816355122645,-0.1346550398061234 l 4.834270927167465 -29.297090303097534" fill="#ffff18" stroke="none" /><path d="M 96.22490169976321 120.6578951692458 l -5.5847037451907475 30.560323293358575 a52.06641716896466,52.06641716896466 0 0,0 -0.8802506803906084,-0.1687021379111322 l 6.109922040153052 -30.459663957098975" fill="#eaff1a" stroke="none" /><path d="M 95.16358092515715 120.4354850818985 l -6.947317195228249 29.354734299346646 a51.16563677425611,51.16563677425611 0 0,0 -0.8553108916011714,-0.21021460754496252 l 7.4515813715726305 -29.230798433487653" fill="#f8ff18" stroke="none" /><path d="M 94.46302465271185 120.25689768951611 l -9.345081085441015 34.18876544948418 a56.44294321093143,56.44294321093143 0 0,0 -0.9349876535011585,-0.26423685021866583 l 9.932199907046787 -34.02283980592699" fill="#a9ff21" stroke="none" /><path d="M 90.42595943632237 118.69057910512821 l -14.811027821807778 28.914300633108763 a53.4869716384916,53.4869716384916 0 0,0 -0.8158268386721986,-0.4268020436356901 l 15.306545563006472 -28.655069170528357" fill="#d4ff1c" stroke="none" /><line stroke="#e1ed5e" stroke-width="0.3" x1="58.666819895761336" x2="56.23545636021788" y1="174.27360380694188" y2="178.64263932499728" /><path d="M 58.180547188652646 175.14741091055294 a86.0,86.0 0 0,1 -31.652253787137756,-30.449443065178592" fill="none" id="id8" stroke="none" /><text fill="#e1ed5e" style="font-size:6.75px; font-family:Arial;" text-anchor="middle"><textPath startOffset="22.20632615414155" xlink:href="#id8">August</textPath></text><path d="M 89.1626897886671 117.98757091392108 l -11.28430396647814 18.729483040820128 a42.86616223721582,42.86616223721582 0 0,0 -0.6287461708637463,-0.38622725133748026 l 11.605029337274194 -18.53246732265427" fill="#ff7d0b" stroke="none" /><path d="M 88.24862548938628 117.40417183066458 l -13.294574042342143 19.689701050667292 a44.75773613861317,44.75773613861317 0 0,0 -0.6347992175595807,-0.43662069024578 l 13.631530144524614 -19.45793957105641" fill="#ff9e0e" stroke="none" /><path d="M 87.95078237400918 117.19931262002967 l -12.833710572050276 18.319114738831157 a43.36725490223635,43.36725490223635 0 0,0 -0.6077046659018832,-0.4335811435613777 l 13.147142565801046 -18.09548933342556" fill="#ff860c" stroke="none" /><path d="M 87.36589467227662 116.77436683061367 l -14.563410090492683 19.33591471859334 a45.206827786155266,45.206827786155266 0 0,0 -0.6175495317995398,-0.4735106473209331 l 14.89408835078571 -19.08236472944504" fill="#ffa50f" stroke="none" /><path d="M 87.07902340077011 116.55440617244103 l -18.43156212513313 23.614590079067263 a50.95615707955585,50.95615707955585 0 0,0 -0.6867980219659825,-0.5456338857056894 l 18.83531763981647 -23.29382227935644" fill="#fbff18" stroke="none" /><path d="M 86.51685102203217 116.09983520530335 l -14.562027521903588 17.38809262886859 a43.68035296944895,43.68035296944895 0 0,0 -0.5722844331997756,-0.4877132094184883 l 14.85917743168042 -17.13485502922715" fill="#ff8c0c" stroke="none" /><path d="M 86.24171649860922 115.8653595955263 l -15.02720118168862 17.328611555191994 a43.93681655735332,43.93681655735332 0 0,0 -0.5671147674671938,-0.5004128449864308 l 15.323258302062401 -17.067375568433274" fill="#ff900d" stroke="none" /><path d="M 85.44109423537348 115.13401014063109 l -24.735078855811864 25.712161359179554 a56.678275851892245,56.678275851892245 0 0,0 -0.6972778697902016,-0.6824331531274838 l 25.17400667797786 -25.2825781031295" fill="#a5ff21" stroke="none" /><path d="M 85.18274418774928 114.88116024355367 l -15.750337515053072 15.818266177045704 a43.322425421220615,43.322425421220615 0 0,0 -0.5239112419548316,-0.5307193220677482 l 16.020289382063435 -15.544806360997292" fill="#ff850c" stroke="none" /><path d="M 84.67929136418377 114.36230785411682 l -17.812929317042958 16.698625417163278 a45.416071380889676,45.416071380889676 0 0,0 -0.5297538009272047,-0.5749431232601003 l 18.09772952596589 -16.389531039101833" fill="#ffa90f" stroke="none" /><path d="M 84.19399662182784 113.82643327865904 l -20.249218438153704 17.713172709222917 a47.9032959836304,47.9032959836304 0 0,0 -0.5375605007043112,-0.6253043073693609 l 20.551121448428795 -17.361991302692026" fill="#ffd213" stroke="none" /><path d="M 83.72743513129214 113.27417163493432 l -34.33582240540776 28.009081758983825 a65.31091695324237,65.31091695324237 0 0,0 -0.7031251652571722,-0.8772567540948308 l 34.81286548271979 -27.413897171310737" fill="#32ff2f" stroke="none" /><path d="M 83.50135304334701 112.99209946851258 l -17.570627856091182 13.836246416467638 a43.36445121514188,43.36445121514188 0 0,0 -0.4567581420890015,-0.5904214702672077 l 17.80619281539825 -13.531746952087177" fill="#ff860c" stroke="none" /><path d="M 83.06392112726016 112.41649034213515 l -18.62249164637915 13.652864362006392 a44.09107837254045,44.09107837254045 0 0,0 -0.44347270134435035,-0.6159447949487377 l 18.854744140099108 -13.330285961606517" fill="#ff930d" stroke="none" /><path d="M 82.85270091963577 112.12312394758628 l -24.266400816850474 17.15632202399531 a50.71864051391093,50.71864051391093 0 0,0 -0.49786164502416397,-0.7172068319334113 l 24.558123369036775 -16.736073929874884" fill="#ffff18" stroke="none" /><path d="M 82.6465618267979 111.8261652097733 l -19.303484643197358 13.15509907813558 a44.35981915866901,44.35981915866901 0 0,0 -0.42458028073495513,-0.6346899118897827 l 19.527068029343045 -12.820872252039976" fill="#ff970d" stroke="none" /><path d="M 82.24976979558568 111.22182372390057 l -38.10458651112657 24.08999477616018 a66.08089796687011,66.08089796687011 0 0,0 -0.5995594145325065,-0.9666806801000073 l 38.513610565327035 -23.43051776469491" fill="#30ff39" stroke="none" /><path d="M 82.05923443525364 110.91462005526583 l -16.002477186127127 9.735423931565446 a39.731197378166094,39.731197378166094 0 0,0 -0.3504275040878395,-0.5873366534035959 l 16.167685565913196 -9.45852518427574" fill="#ff4606" stroke="none" /><line stroke="#e1ed5e" stroke-width="0.3" x1="26.63291911575756" x2="22.317208475507996" y1="142.92168965132927" y2="145.44649492493687" /><path d="M 25.769776987707644 143.4266507060508 a86.0,86.0 0 0,1 -11.730757126820373,-40.83630448921669" fill="none" id="id9" stroke="none" /><text fill="#e1ed5e" style="font-size:6.75px; font-family:Arial;" text-anchor="middle"><textPath startOffset="21.46611528233685" xlink:href="#id9">September</textPath></text><path d="M 81.69416730710424 110.29060199501025 l -18.046023506125856 10.144550570824888 a41.70195330561033,41.70195330561033 0 0,0 -0.34637163944998817,-0.62876513604541 l 18.21797155502736 -9.832414916381657" fill="#ff6909" stroke="none" /><path d="M 81.51974371655577 109.97397251340807 l -19.979219090188362 10.782977194067213 a43.703343203623575,43.703343203623575 0 0,0 -0.3515985817351988,-0.6650920132578996 l 20.161870180148448 -10.437470165723186" fill="#ff8c0c" stroke="none" /><path d="M 81.35079622478065 109.6543875284942 l -16.38387339813776 8.481663073122194 a39.44911694396701,39.44911694396701 0 0,0 -0.3069917698447721,-0.6057238862204958 l 16.5274438377688 -8.198384975199014" fill="#ff4106" stroke="none" /><path d="M 81.02952815118164 109.00673069616217 l -27.971383719220302 13.280150455178289 a51.96386124629864,51.96386124629864 0 0,0 -0.37667708041428055,-0.8113289204461315 l 28.195835416474413 -12.79670146745333" fill="#ecff1a" stroke="none" /><path d="M 80.58989483394504 108.01547362559985 l -25.119526048922623 10.373199774560025 a48.17708340652901,48.17708340652901 0 0,0 -0.30993323909170717,-0.7692288819856699 l 25.294361902271717 -9.93927152473155" fill="#ffd714" stroke="none" /><path d="M 80.45479744820244 107.68017299344265 l -19.703198407509486 7.7422565405892625 a42.16975587544603,42.16975587544603 0 0,0 -0.2596566982304953,-0.6778817036166456 l 19.83354938533349 -7.40195127013946" fill="#ff710a" stroke="none" /><path d="M 80.0844068197444 106.66101706037122 l -42.22607980164703 14.12303592494641 a65.525295722234,65.525295722234 0 0,0 -0.3485563469821595,-1.0727461308849422 l 42.462928399645435 -13.394090894083666" fill="#2fff30" stroke="none" /><path d="M 79.97269907076064 106.31721596034903 l -24.840632841824462 7.835486309812181 a47.04710896997174,47.04710896997174 0 0,0 -0.2369678361909379,-0.7744245995392304 l 24.97182745052153 -7.406734737720903" fill="#ffc412" stroke="none" /><path d="M 79.76711848015287 105.62410040840567 l -24.089783178751674 6.696196944618153 a46.003133945975264,46.003133945975264 0 0,0 -0.20550678522756835,-0.7647671982323863 l 24.201478040321017 -6.280538813210227" fill="#ffb310" stroke="none" /><path d="M 79.67330655649465 105.27499134158121 l -28.658957202285006 7.4373016703856765 a50.60826377987614,50.60826377987614 0 0,0 -0.21156347443068188,-0.8450909144778992 l 28.782731991010746 -6.942882916510386" fill="#fffd18" stroke="none" /><path d="M 79.58551787078972 104.9243191809786 l -19.111829291616438 4.610097232377659 a40.65998513132358,40.65998513132358 0 0,0 -0.15826305590030626,-0.6817931026895229 l 19.1883529134473 -4.280435472339562" fill="#ff5708" stroke="none" /><path d="M 79.4281124754447 104.21870165774334 l -46.32101350915877 9.499105818374055 a68.28497968556545,68.28497968556545 0 0,0 -0.2262186006419068,-1.1534837709951382 l 46.477662042776345 -8.700358320310961" fill="#34ff5a" stroke="none" /><path d="M 79.35854240842038 103.8639653848113 l -19.26993024272944 3.6072231379633317 a40.60464920182753,40.60464920182753 0 0,0 -0.12269092616310372,-0.6881158706659999 l 19.329167611231732 -3.274988516564118" fill="#ff5607" stroke="none" /><path d="M 79.23777060512086 103.15116336523772 l -29.610591136884416 4.494113239910387 a50.94969384299071,50.94969384299071 0 0,0 -0.12413759218525534,-0.8682180306155491 l 29.68356278008627 -3.983749737314437" fill="#fbff18" stroke="none" /><path d="M 79.1416061653843 102.43462659150553 l -21.77531975564698 2.5416517175762996 a42.923150866472824,42.923150866472824 0 0,0 -0.0793418061409336,-0.7346065856049874 l 21.815843863288965 -2.16644881008653" fill="#ff7e0b" stroke="none" /><path d="M 79.07016306316243 101.71520430193888 l -44.12842615929449 3.616333305158112 a65.27635782074111,65.27635782074111 0 0,0 -0.08213457197534321,-1.1206609783822352 l 44.18413728993417 -2.856199190279116" fill="#32ff2f" stroke="none" /><path d="M 79.04373962182676 101.35467743843564 l -29.55213132224625 1.910341102729893 a50.61381212907361,50.61381212907361 0 0,0 -0.04871856374388045,-0.869902682927007 l 29.580636236877663 -1.4013667034674486" fill="#fffd18" stroke="none" /><path d="M 79.0095281055655 100.63252640178507 l -30.351393493490395 0.9146081999562231 a51.365170757894944,51.365170757894944 0 0,0 -0.019024527539466426,-0.8839950393134428 l 30.36264008371487 -0.39202334485265133" fill="#f5ff19" stroke="none" /><line stroke="#e1ed5e" stroke-width="0.3" x1="15.007084014347285" x2="10.007500721073583" y1="101.09737516637583" y2="101.16192664675087" /><path d="M 14.007167355692545 101.11028546245083 a86.0,86.0 0 0,1 10.666146001902534,-42.60595125391555" fill="none" id="id10" stroke="none" /><text fill="#e1ed5e" style="font-size:6.75px; font-family:Arial;" text-anchor="middle"><textPath startOffset="22.20632615414155" xlink:href="#id10">October</textPath></text><path d="M 79.00175016825051 100.2711162175752 l -29.832580814925052 0.3851795523844007 a50.83506730957062,50.83506730957062 0 0,0 -0.003765916761990275,-0.8750664289184746 l 29.834791028976547 0.12839635473774927" fill="#fdff18" stroke="none" /><path d="M 79.00019446554 99.90962569577889 l -24.423046263902297 -0.10510648822144716 a45.4232724298481,45.4232724298481 0 0,0 0.010094766148579452,-0.781850763030071 l 24.417618490636002 0.5254935093119901" fill="#ffa90f" stroke="none" /><path d="M 79.01574976396665 99.18683210126434 l -44.28243221180039 -1.7160037622283206 a65.3156684650551,65.3156684650551 0 0,0 0.05320549586924477,-1.1230839260107222 l 44.24633310769765 2.477998794862052" fill="#32ff2f" stroke="none" /><path d="M 79.03285615573316 98.82574320788736 l -29.631951295690577 -1.6595259865129437 a50.67838546973353,50.67838546973353 0 0,0 0.05627571419070097,-0.8705603903094402 l 29.598994990495463 2.1693454410753956" fill="#fffe18" stroke="none" /><path d="M 79.16333360222342 97.38593545837743 l -30.60657251096878 -3.8397483750116908 a51.84649005077554,51.84649005077554 0 0,0 0.11871365125949992,-0.8845545911200001 l 30.535942860651446 4.36602130819635" fill="#edff19" stroke="none" /><path d="M 79.26566170972629 96.67025291283419 l -45.09999698047536 -7.242651367725045 a66.67784721802568,66.67784721802568 0 0,0 0.1917405272064546,-1.131663445381442 l 44.96864459174868 8.017900601422316" fill="#31ff42" stroke="none" /><path d="M 79.32604984820605 96.31383870115002 l -31.156472639916405 -5.555193023621204 a52.64784284736559,52.64784284736559 0 0,0 0.1667539597476139,-0.8908063208559182 l 31.05623295625893 6.090677421939695" fill="#e1ff1b" stroke="none" /><path d="M 79.46518482838121 95.60439243477599 l -28.89932039995066 -6.1860830164872445 a50.5539903002264,50.5539903002264 0 0,0 0.18947060933677928,-0.849359590203785 l 28.78855540361184 6.682620776240988" fill="#fffc17" stroke="none" /><path d="M 79.54389044137918 95.25157060432595 l -18.767041603981244 -4.356349958275767 a40.26602282580741,40.26602282580741 0 0,0 0.1625351428370385,-0.6738130992061215 l 18.68927366088339 4.678748289141286" fill="#ff5007" stroke="none" /><path d="M 79.62865764111835 94.90015583598534 l -21.38638381457025 -5.3539537436796145 a43.0463655361507,43.0463655361507 0 0,0 0.18613180430162227,-0.7172417699156823 l 21.291055678398322 5.7212919391441615" fill="#ff810b" stroke="none" /><path d="M 79.81627453868168 94.20196356495316 l -33.88602777323129 -9.734200162637944 a56.2564537504058,56.2564537504058 0 0,0 0.27537293785474826,-0.9284206512258615 l 33.71344893826483 10.316050200610345" fill="#acff21" stroke="none" /><path d="M 79.91906864156998 93.8553929516997 l -36.73771091941731 -11.241450579387845 a59.41913084294715,59.41913084294715 0 0,0 0.3076906970680993,-0.9754635937711015 l 36.538764738581 11.87216433958536" fill="#7fff26" stroke="none" /><path d="M 80.14247586403 93.16781622104843 l -25.158162497416765 -8.655922487926127 a47.60560343918951,47.60560343918951 0 0,0 0.2732718490849633,-0.7725763165461558 l 25.00543756752199 9.087696430898893" fill="#ffcd13" stroke="none" /><path d="M 80.38941819471856 92.48833698450439 l -27.656409444202886 -10.593547403446916 a50.61587800377479,50.61587800377479 0 0,0 0.3186545500238314,-0.8109410724973651 l 27.46996134429736 11.068037480840045" fill="#fffd18" stroke="none" /><path d="M 80.65960295795068 91.81776055985345 l -30.098495105077365 -12.733611063019126 a53.68125239789028,53.68125239789028 0 0,0 0.3673568893741288,-0.8479103495258512 l 29.874847505860558 13.249820557131576" fill="#d1ff1c" stroke="none" /><path d="M 80.803312248108 91.48605970444005 l -27.10208223593511 -12.020068931910673 a50.648017111626096,50.648017111626096 0 0,0 0.3603188765179742,-0.7939148823303569 l 26.891161042453785 12.484805823083102" fill="#fffe18" stroke="none" /><path d="M 81.10775173730289 90.83032412892265 l -45.22454242036913 -21.95050528906026 a71.27010960378772,71.27010960378772 0 0,0 0.5451823563600624,-1.0990543629435585 l 44.84000005105566 22.72571924050278" fill="#39ff86" stroke="none" /><path d="M 81.43458229118936 90.18545643968196 l -16.204491806768434 -8.566448285990882 a39.329473286272616,39.329473286272616 0 0,0 0.3215500964407848,-0.5957834937086108 l 16.05463361110918 8.844112763031966" fill="#ff3f05" stroke="none" /><line stroke="#e1ed5e" stroke-width="0.3" x1="26.266209847984243" x2="21.928928074336255" y1="57.711370442889674" y2="55.22380399835377" /><path d="M 25.398753493254645 57.213857153982495 a86.0,86.0 0 0,1 29.58750427330803,-30.492523968695096" fill="none" id="id11" stroke="none" /><text fill="#e1ed5e" style="font-size:6.75px; font-family:Arial;" text-anchor="middle"><textPath startOffset="21.46611528233685" xlink:href="#id11">November</textPath></text><path d="M 81.78341655067845 89.55222093294921 l -38.499970842960906 -22.080934691962426 a65.38260280537352,65.38260280537352 0 0,0 0.5683315047652536,-0.9714627690078442 l 38.11417966372533 22.740376873324163" fill="#31ff2f" stroke="none" /><path d="M 81.96595687620814 89.24020034530311 l -30.520150025594372 -18.209488435427442 a56.53962614694693,56.53962614694693 0 0,0 0.5058525011340409,-0.831488506904816 l 30.202181726174114 18.73214471553933" fill="#a7ff21" stroke="none" /><path d="M 82.34701348167596 88.62581576622439 l -20.92593009802526 -13.483009458540401 a45.89349502433375,45.89349502433375 0 0,0 0.4335916108577315,-0.6603897703468801 l 20.690741851809605 13.841217292864947" fill="#ffb110" stroke="none" /><path d="M 82.54541684631803 88.32363383020206 l -18.120055341494208 -12.12153847052247 a42.8006444966925,42.8006444966925 0 0,0 0.4149125749112601,-0.6088330061596278 l 17.908718300914206 12.431649499952513" fill="#ff7c0b" stroke="none" /><path d="M 82.7489923806493 88.02491185347247 l -35.60847908904151 -24.718247493945718 a64.34692079267754,64.34692079267754 0 0,0 0.6394471582814871,-0.904452657297523 l 35.17771931095614 25.327526651575027" fill="#3eff2e" stroke="none" /><path d="M 83.17141714833178 87.43820079747576 l -40.85961081393084 -30.499907868772596 a71.987764962484,71.987764962484 0 0,0 0.7497836288946262,-0.986627366976253 l 40.328551244812104 31.198720011629877" fill="#3aff91" stroke="none" /><path d="M 83.39014120810768 87.1503855733568 l -15.805536610451982 -12.227379762532165 a40.983087934589065,40.983087934589065 0 0,0 0.43646192291568114,-0.5542623187006845 l 15.592720606942331 12.497634475185897" fill="#ff5c08" stroke="none" /><path d="M 84.07557802195018 86.31012108654704 l -20.709247940887902 -17.803289632127058 a48.30988963731953,48.30988963731953 0 0,0 0.5475308001589747,-0.6259223548508231 l 20.399725277151084 18.157127543180824" fill="#ffd914" stroke="none" /><path d="M 84.31358615837235 86.03803664274999 l -15.609168124662238 -13.893209473751572 a41.896588214957774,41.896588214957774 0 0,0 0.48411778889763657,-0.5345749540530049 l 15.367706695148556 14.159837215074132" fill="#ff6d0a" stroke="none" /><path d="M 85.57189188830299 84.74124197986013 l -25.59782070644701 -27.07152933557134 a58.257430473478806,58.257430473478806 0 0,0 0.7345765857022137,-0.6827088793618196 l 25.12803623694994 27.508142801007807" fill="#8fff24" stroke="none" /><path d="M 85.83668400450813 84.49514656593479 l -14.617875391341641 -16.002468315493495 a42.67397686501406,42.67397686501406 0 0,0 0.5466109948701189,-0.49075274822179815 l 14.340253408875551 16.25172007248457" fill="#ff7a0b" stroke="none" /><path d="M 86.10567301691215 84.25364557470407 l -19.980264920812104 -22.64351006978355 a51.19833661952631,51.19833661952631 0 0,0 0.665837296655363,-0.5774075423898535 l 19.587533825509965 22.984082605593084" fill="#f7ff18" stroke="none" /><path d="M 86.65592168130627 83.78471172551755 l -33.964770611441104 -41.27288026102507 a74.4514385936312,74.4514385936312 0 0,0 0.996573636221596,-0.8058265734402899 l 33.24929357665501 41.85141293172949" fill="#3effb3" stroke="none" /><path d="M 86.93701828274178 83.55741782278169 l -13.238999678710794 -16.6641387757418 a42.282965809071015,42.282965809071015 0 0,0 0.5737747012805874,-0.44784025541300077 l 12.950192422270781 16.889557420378022" fill="#ff730a" stroke="none" /><path d="M 87.51073957382395 83.11751280151077 l -13.592044343519476 -18.373186786130926 a43.85427010679308,43.85427010679308 0 0,0 0.6107326995532371,-0.4437232794689487 l 13.273766327612456 18.60442930041654" fill="#ff8f0d" stroke="none" /><path d="M 87.80319425747018 82.90503203632743 l -13.239656005086358 -18.556620482015763 a43.79554024028793,43.79554024028793 0 0,0 0.6174521757266664,-0.4325647078655905 l 12.918272689776032 18.781770032645294" fill="#ff8d0d" stroke="none" /><path d="M 88.09926311788651 82.69761687909137 l -17.56120629420707 -25.532092876060712 a51.98844515524276,51.98844515524276 0 0,0 0.7416901958863721,-0.5007925310961795 l 17.119111403914157 25.83059731945556" fill="#ebff1a" stroke="none" /><path d="M 88.70189139769569 82.29822771554957 l -25.44828056047299 -39.87213111231923 a68.30118204572189,68.30118204572189 0 0,0 0.9964844785307648,-0.6239984890383059 l 24.758176929569984 40.30427394268047" fill="#34ff5b" stroke="none" /><path d="M 89.00827224532344 82.1063720568725 l -11.94731323429262 -19.44924243993215 a43.82567249842951,43.82567249842951 0 0,0 0.6461947942397958,-0.3893251332065796 l 11.610756373835175 19.65201418259735" fill="#ff8e0d" stroke="none" /><line stroke="#e1ed5e" stroke-width="0.3" x1="56.762969772571076" x2="54.21961505331055" y1="26.818313649435495" y2="22.513508569990535" /><path d="M 56.25429882871897 25.957352633546506 a86.0,86.0 0 0,1 42.265352541879196,-11.944610805530505" fill="none" id="id12" stroke="none" /><text fill="#e1ed5e" style="font-size:6.75px; font-family:Arial;" text-anchor="middle"><textPath startOffset="22.20632615414155" xlink:href="#id12">December</textPath></text><path d="M 89.63071344664047 81.73862282372117 l -16.7636043935532 -29.522426744530325 a54.949847026897125,54.949847026897125 0 0,0 0.8265396659510894,-0.45996842922627545 l 16.252940638530063 29.806610571316785" fill="#bfff1e" stroke="none" /><path d="M 89.94658935756843 81.56283822128135 l -12.852800957904442 -23.57102271048182 a47.847487854202654,47.847487854202654 0 0,0 0.7264956434994887,-0.3880688126199939 l 12.445160267876648 23.788770249603562" fill="#ffd113" stroke="none" /><path d="M 90.26544431104013 81.39251694778311 l -13.739310608836234 -26.262522653499794 a50.63931092538539,50.63931092538539 0 0,0 0.7758412955225945,-0.39741604540607767 l 13.285208825724876 26.495131224218376" fill="#fffe18" stroke="none" /><path d="M 90.91171255644093 81.06846463323043 l -20.51046781416604 -42.724732159309106 a68.39284785746308,68.39284785746308 0 0,0 1.0656966671539434,-0.5003588746609838 l 19.77199293571249 43.0714560166101" fill="#34ff5c" stroke="none" /><path d="M 91.23893434514133 80.91482961587045 l -12.348179696696407 -26.899366210616726 a50.59820001883179,50.59820001883179 0 0,0 0.7946757685526437,-0.3565478531069185 l 11.883321809676989 27.10793439424017" fill="#fffd17" stroke="none" /><path d="M 91.90106846888425 80.62456947434976 l -11.817736330074458 -28.272090997942502 a51.64261773026422,51.64261773026422 0 0,0 0.8231246271905016,-0.3357732028595511 l 11.329327833295576 28.47132508698563" fill="#f1ff19" stroke="none" /><path d="M 92.23578459929587 80.48803036053334 l -10.416788679100813 -26.178055857250193 a49.174458199765866,49.174458199765866 0 0,0 0.7891723935876573,-0.30618662818326114 l 9.96463312051348 26.353485189324008" fill="#ffe715" stroke="none" /><path d="M 92.57280143429618 80.3572730644239 l -6.834567901988914 -18.07539543123819 a40.32436902986805,40.32436902986805 0 0,0 0.6513685084285938,-0.23990451877922156 l 6.52241706778775 18.19036321782373" fill="#ff5107" stroke="none" /><path d="M 93.25333710446033 80.11325718540243 l -14.263420226903891 -42.04344786464645 a65.3970344157861,65.3970344157861 0 0,0 1.0691392994925577,-0.35247841761969223 l 13.537598105168923 42.28274000652537" fill="#30ff2f" stroke="none" /><path d="M 93.59665428221793 80.00007090966166 l -6.3641911282122585 -19.877635363047773 a41.87159113107343,41.87159113107343 0 0,0 0.6883183679201081,-0.2138638674749042 l 6.021087387581422 19.9842393654052" fill="#ff6c0a" stroke="none" /><path d="M 94.28887869178378 79.79150937346287 l -6.912188588339996 -24.458401556865876 a46.41636791120393,46.41636791120393 0 0,0 0.770737403105004,-0.21067164704267438 l 6.49015329601127 24.573759744734847" fill="#ffba11" stroke="none" /><path d="M 94.63758080256005 79.69619591428918 l -7.546535476394937 -28.573554620970125 a50.55331151282459,50.55331151282459 0 0,0 0.8432559843086067,-0.21496472627796906 l 7.053570603401331 28.69922234341696" fill="#fffc17" stroke="none" /><path d="M 95.692805502759 79.44645832069477 l -9.084337065393932 -43.349632950644065 a65.29126163108538,65.29126163108538 0 0,0 1.1019722043012468,-0.2210452573665703 l 8.33679845162555 43.49958216408785" fill="#32ff2f" stroke="none" /><path d="M 96.04723909329186 79.375362276772 l -5.583415114922511 -29.133033017059997 a50.663245559423416,50.663245559423416 0 0,0 0.8579093953187211,-0.15677745837564677 l 5.081110598500897 29.22482595678638" fill="#fffe18" stroke="none" /><path d="M 96.75951476605007 79.25152402106235 l -4.102050098839302 -26.26498249350808 a47.58338052990389,47.58338052990389 0 0,0 0.8103472806457672,-0.11942412458064243 l 3.6493338377648867 26.33170110224969" fill="#ffcd13" stroke="none" /><path d="M 97.11714578562143 79.19881850522333 l -2.2168300253606996 -15.995496224056687 a37.14838180175192,37.14838180175192 0 0,0 0.6341498921759424,-0.08233085622820967 l 1.9411654046768996 16.031285403449033" fill="#ff1702" stroke="none" /><path d="M 98.55514903715128 79.0497635885617 l -4.334552888546145 -62.8507092343149 a84.0,84.0 0 0,0 1.4433518046415081,-0.08706692247877434 l 3.2520390350650135 62.91600942617398" fill="#4dd2ff" stroke="none" /></svg>